      _      ____   _____ _ _______
     | |    |___ \ / ____(_)__   __|
 ____| |_____ __) | |_ __ _ __| |_______
 \___| |_____|__ <| |_|_ | |__| |_______\
     | |____ ___) | |__| | |  | |
     |______|____/ \_____|_|  |_|



This is my first Torrent release but don't be alarmed because I have been encoding for a long time now.  My inspiration to have High Def videos at a small file size came from 3Li.

I will try to see as much as I can.  When ever my computer is on (which is pretty much 24/7) I will be seeding.

If you download this, please Seed.

Unknown 2011
A man awakens from a coma, only to discover that someone has taken on his identity and that no one, (not even his wife), believes him. With the help of a young woman, he sets out to prove who he is.

IMDb............... http://www.imdb.com/title/tt1401152/
IMDb Rating........ 7.0/10
Trailer............

Media File Details

File size                        : 3.07 GiB
Duration                         : 1h 53mn
Overall bit rate                 : 3 884 Kbps

Video
ID                               : 1
Format                           : AVC
Format profile                   : High@L4.1
Format settings, ReFrames        : 5 frames
Duration                         : 1h 53mn
Bit rate mode                    : Variable
Bit rate                         : 3 500 Kbps
Maximum bit rate                 : 18.4 Mbps
Width                            : 1 920 pixels
Height                           : 800 pixels
Frame rate mode                  : Constant
Frame rate                       : 23.976 fps
Scan type                        : Progressive
Stream size                      : 2.76 GiB (90%)
Title                            : Unknown[Video] - L3GiT
Writing library                  : x264 core 115 r1995 c1e60b9

Audio
ID                               : 2
Format                           : AAC
Format profile                   : LC
Duration                         : 1h 53mn
Bit rate mode                    : Variable
Bit rate                         : 384 Kbps
Maximum bit rate                 : 396 Kbps
Channel(s)                       : 6 channels
Channel positions                : Front: L C R, Side: L R, LFE
Sampling rate                    : 48.0 KHz
Stream size                      : 311 MiB (10%)
Title                            : Unknown[Audio] - L3GiT

NO SUBTITLES!


Sample Included!



FILES
Unknown - L3GiT\ - 3.13GB
       Unknown - L3GiT.mp4 - 3.07GB
       Screens\ - 22.8MB
              Unknown - L3GiT [Screen 1].png - 1.76MB
              Unknown - L3GiT [Screen 2].png - 1.75MB
              Unknown - L3GiT [Screen 3].png - 1.23MB
              Unknown - L3GiT [Screen 4].png - 909KB
              Unknown - L3GiT [Screen 5].png - 1.26MB
              Unknown - L3GiT [Screen 6].png - 1.5MB
              Unknown - L3GiT [Screen 7].png - 1.5MB
              Unknown - L3GiT [Screen 8].png - 1.43MB
              Unknown - L3GiT [Screen 9].png - 1.13MB
              Unknown - L3GiT [Screen 10].png - 1.46MB
              Unknown - L3GiT Thumbnails.png - 8.51MB
              Unknown Blu-Ray Case.png - 434KB
       Sample\ - 42.4MB
              Unknown Sample - L3GiT.mp4 - 42.4MB


Screens:
 
http://img585.imageshack.us/img585/3962/unknownl3gitscreen1.png
 
http://img691.imageshack.us/img691/2293/unknownl3gitscreen2.png
 
http://img832.imageshack.us/img832/286/unknownl3gitscreen3.png
 
http://img200.imageshack.us/img200/2889/unknownl3gitscreen4.png
 
http://img21.imageshack.us/img21/3484/unknownl3gitscreen5.png
 
http://img825.imageshack.us/img825/9515/unknownl3gitscreen6.png
 
http://img193.imageshack.us/img193/6384/unknownl3gitscreen7.png
 
http://img843.imageshack.us/img843/6374/unknownl3gitscreen8.png
 
http://img600.imageshack.us/img600/722/unknownl3gitscreen9.png
 
http://img718.imageshack.us/img718/3795/unknownl3gitscreen10.png
